<svg width="19" height="25" viewBox="0 0 19 25" fill="none" xmlns="http://www.w3.org/2000/svg">
<path d="M18.4492 25H0.551518C0.44773 25 0.348487 24.9575 0.277275 24.8825C0.206063 24.8075 0.168184 24.7068 0.17273 24.603L1.025 6.70527C1.03485 6.503 1.20076 6.34467 1.40379 6.34467H17.597C17.7992 6.34467 17.9659 6.503 17.9758 6.70527L18.828 24.603C18.8326 24.7068 18.7955 24.8075 18.7235 24.8825C18.6515 24.9575 18.5523 25 18.4492 25ZM0.948487 24.2424H18.0515L17.2356 7.10224H1.7644L0.948487 24.2424Z" fill="black"/>
<path d="M13.5945 8.61742C13.3855 8.61742 13.2158 8.44773 13.2158 8.23864V4.47348C13.2158 2.425 11.5491 0.757576 9.49985 0.757576C7.45061 0.757576 5.78394 2.425 5.78394 4.47348V8.23864C5.78394 8.44773 5.61425 8.61742 5.40516 8.61742C5.19606 8.61742 5.02637 8.44773 5.02637 8.23864V4.47348C5.02637 2.00682 7.03319 0 9.49985 0C11.9665 0 13.9733 2.00682 13.9733 4.47348V8.23864C13.9733 8.44773 13.8044 8.61742 13.5945 8.61742Z" fill="black"/>
</svg>
