<svg width="25" height="22" viewBox="0 0 25 22" fill="none" xmlns="http://www.w3.org/2000/svg">
<path d="M12.4019 2.83555L12.508 2.94162L12.614 2.83555L13.2977 2.15185C14.5787 0.87085 16.279 0.1659 18.0888 0.1659C19.8989 0.1659 21.5938 0.865672 22.8747 2.14655C24.1555 3.42736 24.8552 5.1274 24.85 6.93723V6.93766C24.85 8.7475 24.1451 10.4478 22.8641 11.7288L12.8897 21.666L12.8895 21.6662C12.7817 21.774 12.6352 21.829 12.4921 21.829C12.3519 21.829 12.2045 21.7707 12.0946 21.6609L2.14129 11.7076C0.859984 10.4263 0.150029 8.73119 0.15003 6.92176L0.150028 6.92133C0.144843 5.11179 0.84967 3.41167 2.13069 2.13065C3.40637 0.854968 5.10662 0.15 6.9112 0.15C8.72087 0.15 10.4265 0.860128 11.7076 2.14125L12.4019 2.83555ZM22.069 10.9288L22.0692 10.9286C23.136 9.86178 23.7245 8.44551 23.719 6.93712C23.7189 5.42969 23.1362 4.01369 22.0692 2.94672L22.0689 2.94644C21.0022 1.88519 19.5863 1.29689 18.0835 1.29689C16.5809 1.29689 15.1595 1.88513 14.0926 2.95202L12.9054 4.13921C12.6831 4.36153 12.3276 4.36153 12.1052 4.13921L10.9074 2.94142C9.8405 1.87447 8.41905 1.28629 6.9112 1.28629C5.40861 1.28629 3.99257 1.87449 2.93103 2.93594C1.86368 3.99788 1.28102 5.41424 1.28102 6.92176C1.28102 8.42976 1.86931 9.84587 2.93615 10.9127L12.386 20.3625L12.4919 20.4684L12.5979 20.3628L22.069 10.9288Z" fill="black" stroke="white" stroke-width="0.3"/>
</svg>
