<svg width="420" height="80" viewBox="0 0 420 80" fill="none" xmlns="http://www.w3.org/2000/svg">
<path d="M27.3562 60.0975C26.3589 60.6178 25.2966 60.878 24.1692 60.878C22.7817 60.7045 21.4375 60.3577 20.1367 59.8373C18.8792 59.317 17.947 58.6883 17.34 57.9512C16.9931 55.8265 16.7112 53.8753 16.4945 52.0975C16.2776 50.3198 16.1042 48.6504 15.9741 47.0894C15.844 45.485 15.7573 43.9674 15.714 42.5365C15.6706 41.0623 15.6489 39.588 15.6489 38.1138C15.6489 36.1625 15.6706 34.1029 15.714 31.9349C15.7573 29.7669 15.8007 27.4688 15.844 25.0406C15.9307 22.5691 15.9958 19.9458 16.0392 17.1707C16.0825 14.3523 16.1042 11.2954 16.1042 7.99995C16.6679 7.99995 17.5134 8.17342 18.6408 8.52028C19.7681 8.82382 20.8738 9.19234 21.9579 9.62597C23.0852 10.0596 24.0825 10.5149 24.9497 10.9918C25.8169 11.4254 26.2939 11.794 26.3806 12.0975C25.947 13.3116 25.5568 14.8943 25.2099 16.8455C24.9064 18.7967 24.6462 20.9647 24.4294 23.3495C24.2559 25.7344 24.1259 28.2493 24.0392 30.8943C23.9524 33.5393 23.9091 36.1625 23.9091 38.7642C23.9091 40.7154 23.9307 42.4715 23.9741 44.0325C24.0174 45.5501 24.0608 46.9376 24.1042 48.1951C24.1909 49.4092 24.2993 50.5582 24.4294 51.6422C24.5595 52.6829 24.7112 53.7235 24.8847 54.7642C26.0987 51.0785 27.4213 47.3929 28.8522 43.7073C30.3264 40.0216 31.8223 36.4878 33.34 33.1056C34.901 29.6801 36.4402 26.4932 37.9579 23.5447C39.4755 20.5962 40.9064 18.0379 42.2505 15.8699C43.6381 13.6585 44.8738 11.924 45.9579 10.6666C47.0418 9.3658 47.9307 8.67202 48.6245 8.58532C49.1015 8.67202 49.6001 8.86714 50.1205 9.17068C50.6841 9.43085 51.2044 9.75605 51.6814 10.1463C52.1584 10.5365 52.592 10.9702 52.9823 11.4471C53.3725 11.924 53.676 12.4011 53.8928 12.878C52.2885 13.4417 50.554 14.7642 48.6896 16.8455C46.8684 18.9268 45.0256 21.4417 43.1611 24.3902C41.2966 27.2954 39.4755 30.4824 37.6977 33.9512C35.9633 37.3767 34.3806 40.7371 32.9497 44.0325C31.5622 47.3279 30.3698 50.4065 29.3725 53.2682C28.3752 56.13 27.7031 58.4064 27.3562 60.0975ZM66.0924 29.0081C65.9194 31.6964 65.442 34.0162 64.6616 35.9674C63.8811 37.8753 62.7538 39.5663 61.2795 41.0406C59.8486 42.4715 58.0925 43.7723 56.0112 44.943C53.9299 46.1138 51.5017 47.2411 48.7266 48.3252C48.7266 48.5853 48.705 48.8671 48.6616 49.1707C48.6616 49.4308 48.6616 49.7127 48.6616 50.0162C48.6616 50.5799 48.705 51.1653 48.7917 51.7723C48.8784 52.3793 49.0302 52.943 49.247 53.4634C49.4638 53.9837 49.7673 54.4173 50.1575 54.7642C50.5478 55.0677 51.0465 55.2195 51.6535 55.2195C52.8242 55.2195 53.9733 54.9593 55.1006 54.439C56.228 53.9186 57.2904 53.2899 58.2876 52.5528C59.3283 51.7723 60.2822 50.9484 61.1494 50.0812C62.06 49.1707 62.8621 48.3468 63.5559 47.6097C63.9895 47.9999 64.3581 48.3685 64.6616 48.7154C62.7104 51.317 60.564 53.485 58.2226 55.2195C55.9245 56.9105 53.7348 57.9945 51.6535 58.4715C48.6616 58.1246 46.3201 57.0406 44.6291 55.2195C42.9814 53.3549 42.1575 51.1219 42.1575 48.5203C42.1575 46.7425 42.396 44.943 42.873 43.1219C43.3933 41.2574 44.0871 39.4796 44.9543 37.7886C45.8649 36.0541 46.9055 34.4281 48.0762 32.9105C49.2904 31.3929 50.5694 30.0704 51.9136 28.943C53.3012 27.8157 54.7104 26.9268 56.1413 26.2764C57.6156 25.626 59.0681 25.3008 60.499 25.3008C62.4936 25.5609 64.3581 26.7967 66.0924 29.0081ZM61.6047 31.1544C60.434 31.3279 59.2199 31.8048 57.9624 32.5853C56.705 33.3658 55.5125 34.4065 54.3852 35.7073C53.3012 37.0081 52.3039 38.5257 51.3933 40.2601C50.4827 41.9945 49.7673 43.859 49.247 45.8536C52.7158 44.1192 55.5993 41.9945 57.8974 39.4796C60.1955 36.9214 61.4312 34.1463 61.6047 31.1544ZM91.5428 30.0487C91.4992 30.8726 91.3477 31.7398 91.0875 32.6504C90.8709 33.5175 90.5886 34.3198 90.242 35.0569C89.8953 35.7506 89.5265 36.336 89.1363 36.813C88.746 37.2899 88.3773 37.5284 88.0306 37.5284C87.5538 37.485 87.2716 37.1598 87.1851 36.5528C87.1851 36.4227 87.2286 36.2276 87.3151 35.9674C87.4452 35.6639 87.5753 35.3387 87.7054 34.9918C87.8355 34.645 87.9441 34.298 88.0306 33.9512C88.1607 33.6043 88.2257 33.3008 88.2257 33.0406C88.2257 32.4336 88.0742 31.9349 87.7704 31.5447C87.5103 31.111 87.1415 30.8943 86.6647 30.8943C84.9301 30.8943 83.6078 31.9783 82.6973 34.1463C81.7867 36.3143 81.3314 39.5013 81.3314 43.7073C81.3314 44.1409 81.3529 44.4011 81.3964 44.4878C82.307 44.4444 83.109 44.4227 83.8029 44.4227C84.5399 44.3793 85.2553 44.3577 85.9493 44.3577C85.9929 44.4444 86.0143 44.6178 86.0143 44.878C86.0143 45.2682 85.9278 45.5501 85.7542 45.7235C84.7571 45.9403 83.9545 46.1354 83.3477 46.3089C82.7838 46.439 82.3506 46.5691 82.0468 46.6991C81.7431 46.8292 81.548 46.981 81.4615 47.1544C81.4179 47.2845 81.3964 47.4796 81.3964 47.7398C81.3964 48.0866 81.3964 48.4336 81.3964 48.7804C81.44 49.1273 81.4615 49.5609 81.4615 50.0812C81.4615 53.7235 80.4644 56.6504 78.4696 58.8617C76.5184 61.0731 73.7867 62.3523 70.2745 62.6991C69.6677 62.6558 69.0387 62.4823 68.3883 62.1788C67.7379 61.8753 67.109 61.485 66.5021 61.0081C65.9382 60.5311 65.44 59.9891 65.0061 59.3821C64.5725 58.8184 64.269 58.233 64.0956 57.626C64.0956 55.9783 64.4424 54.4173 65.1363 52.943C65.8303 51.4254 66.7623 50.1029 67.933 48.9756C69.1473 47.8048 70.5561 46.8726 72.1607 46.1788C73.8081 45.4417 75.5864 45.0081 77.494 44.878C77.494 43.794 77.3854 42.7317 77.1688 41.691C76.9522 40.6504 76.7135 39.6531 76.4533 38.6991C76.2368 37.7019 76.0195 36.7479 75.8029 35.8373C75.5864 34.8834 75.4777 33.9512 75.4777 33.0406C75.4777 31.8699 75.7164 30.7208 76.1932 29.5934C76.6699 28.4227 77.2989 27.3604 78.0794 26.4065C78.8599 25.4092 79.7704 24.5637 80.8111 23.8699C81.8517 23.1761 82.9359 22.6991 84.0631 22.439C84.5398 22.5691 85.1688 22.9593 85.9493 23.6097C86.7734 24.2167 87.5753 24.9105 88.3558 25.691C89.1363 26.4715 89.8303 27.2736 90.4371 28.0975C91.0439 28.878 91.4127 29.5284 91.5428 30.0487ZM70.0794 59.7073C71.12 59.2736 72.0956 58.645 73.0062 57.8211C73.9603 56.9972 74.7838 56.065 75.4777 55.0243C76.1717 53.9837 76.7135 52.878 77.1038 51.7073C77.5376 50.5365 77.7542 49.3875 77.7542 48.2601C76.8872 48.3902 75.933 48.8021 74.8924 49.4959C73.8517 50.1463 72.8761 50.9484 71.9655 51.9024C71.055 52.813 70.296 53.7669 69.6891 54.7642C69.0823 55.7614 68.7785 56.6287 68.7785 57.3658C68.7785 58.3197 69.2124 59.1002 70.0794 59.7073ZM91.5233 54.8292C91.5233 53.3116 91.6755 51.5338 91.9786 49.4959C92.2823 47.4146 92.7161 45.2032 93.2794 42.8617C93.8868 40.5203 94.5802 38.0704 95.3607 35.5121C96.1847 32.9539 97.0953 30.3956 98.0924 27.8373C98.96 25.5393 99.9571 23.2195 101.084 20.878C102.255 18.5365 103.513 16.2385 104.857 13.9837C106.201 11.7289 107.588 9.58259 109.019 7.54467C110.494 5.50673 111.968 3.64223 113.442 1.95117C114.136 1.95117 114.873 2.03789 115.653 2.21133C116.477 2.38477 117.258 2.62326 117.995 2.92677C118.775 3.18694 119.469 3.51215 120.076 3.90239C120.727 4.29263 121.247 4.68288 121.637 5.07312C118.385 8.41185 115.458 11.794 112.857 15.2195C110.255 18.6016 108.196 21.7886 106.678 24.7804C105.854 26.4281 105.095 27.9674 104.401 29.3983C103.751 30.8292 103.144 32.2601 102.58 33.691C102.017 35.0785 101.497 36.4878 101.019 37.9186C100.586 39.3062 100.174 40.7804 99.7834 42.3414C108.109 31.7181 114.287 26.4065 118.32 26.4065C119.448 26.4065 120.661 26.775 121.962 27.5121C123.263 28.2492 124.412 29.2466 125.409 30.504C124.066 31.9783 122.678 33.756 121.247 35.8373C119.816 37.9186 118.494 40.0216 117.279 42.1463C116.109 44.2276 115.133 46.1788 114.353 47.9999C113.616 49.7777 113.247 51.1002 113.247 51.9674C113.247 52.4011 113.312 52.7045 113.442 52.878C113.572 53.0081 113.854 53.0731 114.287 53.0731C114.938 53.0731 115.458 52.9864 115.848 52.813C116.239 52.6395 116.477 52.5528 116.564 52.5528C116.781 52.8997 116.911 53.1382 116.954 53.2682C116.998 53.3983 117.019 53.5067 117.019 53.5934C117.019 53.7669 116.759 54.0271 116.239 54.3739C115.718 54.6775 115.09 55.0027 114.353 55.3495C113.659 55.6531 112.965 55.9349 112.271 56.1951C111.578 56.4552 111.058 56.5853 110.71 56.5853C110.277 56.5853 109.843 56.4552 109.409 56.1951C108.976 55.9783 108.586 55.6747 108.239 55.2845C107.936 54.8943 107.675 54.4606 107.458 53.9837C107.285 53.5067 107.198 53.0081 107.198 52.4877C107.198 51.8373 107.372 50.8834 107.718 49.626C108.109 48.3252 108.629 46.8292 109.279 45.1382C109.93 43.4037 110.71 41.5175 111.621 39.4796C112.531 37.4417 113.507 35.3604 114.548 33.2357C114.548 33.0623 114.461 32.9756 114.287 32.9756C114.157 32.9756 113.811 33.149 113.247 33.4959C112.727 33.8427 112.228 34.1897 111.751 34.5365C110.19 35.7073 108.607 37.1598 107.003 38.8943C105.442 40.5853 103.903 42.4498 102.385 44.4878C100.911 46.5257 99.5018 48.6937 98.1574 50.9918C96.8566 53.2466 95.7294 55.523 94.7753 57.8211C94.6452 58.1246 94.4501 58.4064 94.1899 58.6666C93.9298 58.9268 93.7132 59.0569 93.5395 59.0569C93.4094 59.0569 93.2143 58.9051 92.9542 58.6016C92.7376 58.298 92.521 57.9078 92.3038 57.4308C92.1308 56.9972 91.9571 56.5419 91.7834 56.065C91.6104 55.588 91.5233 55.1761 91.5233 54.8292ZM126.619 43.7723C128.224 37.3549 129.785 32.672 131.302 29.7235C132.863 26.7317 134.489 25.2357 136.18 25.2357C137.394 25.2357 138.847 25.8211 140.538 26.9918C139.151 29.4634 138.066 31.523 137.286 33.1707C136.549 34.775 136.007 36.2492 135.66 37.5934C134.923 40.1951 134.142 42.9051 133.318 45.7235C132.495 48.4986 131.671 51.1653 130.847 53.7235C130.066 56.2818 129.329 58.5799 128.635 60.6178C127.985 62.6991 127.465 64.2818 127.074 65.3658C126.121 67.9238 125.167 70.0923 124.213 71.8699C123.302 73.6474 122.349 75.1004 121.351 76.2276C120.354 77.3547 119.313 78.1788 118.229 78.6991C117.102 79.2195 115.887 79.4796 114.587 79.4796C113.633 79.4796 112.701 79.371 111.79 79.1544C110.836 78.9808 109.947 78.7206 109.123 78.3739C108.3 78.0702 107.562 77.6799 106.912 77.2032C106.261 76.7264 105.741 76.2276 105.351 75.7073C105.394 75.4035 105.546 75.1004 105.806 74.7967C106.023 74.5365 106.24 74.385 106.457 74.3414C107.194 75.1219 107.975 75.6858 108.798 76.0325C109.579 76.3791 110.533 76.5528 111.66 76.5528C113.048 76.5528 114.284 76.1411 115.367 75.317C116.408 74.493 117.471 72.8891 118.554 70.504C119.638 68.1625 120.809 64.8455 122.066 60.5528C123.324 56.3035 124.842 50.71 126.619 43.7723ZM137.221 20.0975C137.221 19.8807 137.286 19.5121 137.416 18.9918C136.896 18.4715 136.635 17.7344 136.635 16.7804C136.635 16.3902 136.679 15.8482 136.766 15.1544C136.896 14.4606 137.048 13.7235 137.221 12.943C137.438 12.1192 137.655 11.2954 137.871 10.4715C138.131 9.64763 138.392 8.93218 138.652 8.32515C139.172 8.32515 139.801 8.47689 140.538 8.78044C141.318 9.0406 142.099 9.40919 142.879 9.88613C143.66 10.3198 144.375 10.8184 145.026 11.3821C145.676 11.9024 146.175 12.4011 146.522 12.878C146.001 13.3549 145.351 14.0271 144.57 14.8943C143.79 15.7614 143.032 16.672 142.294 17.626C141.557 18.5365 140.885 19.4037 140.278 20.2276C139.671 21.0081 139.302 21.5718 139.172 21.9186C138.652 21.832 138.196 21.6151 137.806 21.2682C137.416 20.878 137.221 20.4878 137.221 20.0975ZM163.844 29.0081C163.67 31.6964 163.194 34.0162 162.413 35.9674C161.633 37.8753 160.505 39.5663 159.031 41.0406C157.6 42.4715 155.844 43.7723 153.763 44.943C151.681 46.1138 149.253 47.2411 146.478 48.3252C146.478 48.5853 146.457 48.8671 146.413 49.1707C146.413 49.4308 146.413 49.7127 146.413 50.0162C146.413 50.5799 146.457 51.1653 146.543 51.7723C146.63 52.3793 146.782 52.943 146.998 53.4634C147.215 53.9837 147.519 54.4173 147.909 54.7642C148.299 55.0677 148.798 55.2195 149.405 55.2195C150.576 55.2195 151.725 54.9593 152.852 54.439C153.979 53.9186 155.042 53.2899 156.039 52.5528C157.08 51.7723 158.034 50.9484 158.901 50.0812C159.811 49.1707 160.613 48.3468 161.307 47.6097C161.741 47.9999 162.109 48.3685 162.413 48.7154C160.462 51.317 158.315 53.485 155.974 55.2195C153.676 56.9105 151.486 57.9945 149.405 58.4715C146.413 58.1246 144.072 57.0406 142.381 55.2195C140.733 53.3549 139.909 51.1219 139.909 48.5203C139.909 46.7425 140.148 44.943 140.624 43.1219C141.145 41.2574 141.839 39.4796 142.706 37.7886C143.616 36.0541 144.657 34.4281 145.828 32.9105C147.042 31.3929 148.321 30.0704 149.665 28.943C151.052 27.8157 152.462 26.9268 153.893 26.2764C155.367 25.626 156.82 25.3008 158.25 25.3008C160.245 25.5609 162.109 26.7967 163.844 29.0081ZM159.356 31.1544C158.185 31.3279 156.971 31.8048 155.714 32.5853C154.457 33.3658 153.264 34.4065 152.137 35.7073C151.052 37.0081 150.055 38.5257 149.145 40.2601C148.234 41.9945 147.519 43.859 146.998 45.8536C150.467 44.1192 153.351 41.9945 155.649 39.4796C157.947 36.9214 159.182 34.1463 159.356 31.1544Z" fill="#212121"/>
<path d="M191.984 26.3933V31.2193H191.11V27.1582H188.388V31.2193H187.514V26.3933H191.984ZM196.235 26.3478C196.702 26.3478 197.121 26.451 197.491 26.6574C197.862 26.8638 198.15 27.1522 198.356 27.5224C198.569 27.8927 198.675 28.3207 198.675 28.8063C198.675 29.292 198.569 29.723 198.356 30.0993C198.15 30.4696 197.862 30.758 197.491 30.9644C197.121 31.1708 196.702 31.274 196.235 31.274C195.889 31.274 195.57 31.2072 195.279 31.0737C194.993 30.9401 194.751 30.7458 194.55 30.4909V32.9858H193.676V26.3933H194.514V27.1582C194.708 26.8911 194.954 26.6908 195.251 26.5572C195.549 26.4176 195.876 26.3478 196.235 26.3478ZM196.162 30.5091C196.472 30.5091 196.747 30.4393 196.991 30.2997C197.239 30.154 197.434 29.9537 197.573 29.6987C197.719 29.4377 197.792 29.1402 197.792 28.8063C197.792 28.4725 197.719 28.178 197.573 27.9231C197.434 27.6621 197.239 27.4618 196.991 27.3221C196.747 27.1825 196.472 27.1127 196.162 27.1127C195.858 27.1127 195.582 27.1855 195.333 27.3312C195.09 27.4709 194.896 27.6681 194.751 27.9231C194.611 28.178 194.541 28.4725 194.541 28.8063C194.541 29.1402 194.611 29.4377 194.751 29.6987C194.89 29.9537 195.084 30.154 195.333 30.2997C195.582 30.4393 195.858 30.5091 196.162 30.5091ZM202.012 31.274C201.532 31.274 201.101 31.1678 200.719 30.9553C200.336 30.7428 200.036 30.4514 199.817 30.0811C199.605 29.7047 199.499 29.2798 199.499 28.8063C199.499 28.3328 199.605 27.9109 199.817 27.5406C200.036 27.1643 200.336 26.8729 200.719 26.6665C201.101 26.454 201.532 26.3478 202.012 26.3478C202.492 26.3478 202.92 26.454 203.296 26.6665C203.678 26.8729 203.976 27.1643 204.188 27.5406C204.407 27.9109 204.516 28.3328 204.516 28.8063C204.516 29.2798 204.407 29.7047 204.188 30.0811C203.976 30.4514 203.678 30.7428 203.296 30.9553C202.92 31.1678 202.492 31.274 202.012 31.274ZM202.012 30.5091C202.321 30.5091 202.598 30.4393 202.84 30.2997C203.089 30.154 203.284 29.9537 203.423 29.6987C203.563 29.4377 203.633 29.1402 203.633 28.8063C203.633 28.4725 203.563 28.178 203.423 27.9231C203.284 27.6621 203.089 27.4618 202.84 27.3221C202.598 27.1825 202.321 27.1127 202.012 27.1127C201.702 27.1127 201.423 27.1825 201.174 27.3221C200.931 27.4618 200.737 27.6621 200.591 27.9231C200.452 28.178 200.382 28.4725 200.382 28.8063C200.382 29.1402 200.452 29.4377 200.591 29.6987C200.737 29.9537 200.931 30.154 201.174 30.2997C201.423 30.4393 201.702 30.5091 202.012 30.5091ZM205.778 26.3933H206.652V29.9081L209.612 26.3933H210.404V31.2193H209.53V27.7045L206.58 31.2193H205.778V26.3933ZM214.634 28.7062C214.956 28.7912 215.205 28.9278 215.381 29.1159C215.556 29.3041 215.645 29.5379 215.645 29.8171C215.645 30.1024 215.547 30.3574 215.354 30.5819C215.159 30.8005 214.889 30.9735 214.543 31.101C214.203 31.2224 213.821 31.2831 213.396 31.2831C213.037 31.2831 212.686 31.2376 212.34 31.1465C211.999 31.0494 211.696 30.9128 211.429 30.7367L211.693 30.072C211.923 30.2177 212.187 30.333 212.485 30.418C212.783 30.4969 213.083 30.5364 213.387 30.5364C213.799 30.5364 214.127 30.4666 214.37 30.327C214.619 30.1813 214.743 29.987 214.743 29.7442C214.743 29.5196 214.643 29.3466 214.443 29.2252C214.249 29.1038 213.972 29.0431 213.614 29.0431H212.731V28.4148H213.551C213.878 28.4148 214.136 28.3571 214.325 28.2418C214.513 28.1265 214.607 27.9686 214.607 27.7683C214.607 27.5498 214.494 27.3798 214.27 27.2584C214.051 27.1369 213.754 27.0763 213.378 27.0763C212.898 27.0763 212.391 27.2007 211.857 27.4496L211.62 26.7758C212.209 26.4783 212.825 26.3296 213.469 26.3296C213.857 26.3296 214.206 26.3842 214.516 26.4935C214.825 26.6028 215.068 26.7576 215.244 26.9579C215.42 27.1582 215.508 27.3859 215.508 27.6408C215.508 27.8776 215.429 28.09 215.272 28.2782C215.114 28.4664 214.901 28.6091 214.634 28.7062ZM220.261 28.7153C220.886 28.8731 221.199 29.2647 221.199 29.8899C221.199 30.3148 221.038 30.6426 220.716 30.8733C220.401 31.104 219.927 31.2193 219.296 31.2193H216.974V26.3933H219.214C219.784 26.3933 220.23 26.5026 220.552 26.7211C220.874 26.9336 221.035 27.2371 221.035 27.6317C221.035 27.8867 220.965 28.1083 220.825 28.2964C220.692 28.4785 220.503 28.6182 220.261 28.7153ZM217.83 28.4694H219.141C219.475 28.4694 219.727 28.4087 219.897 28.2873C220.073 28.1659 220.161 27.9899 220.161 27.7592C220.161 27.2979 219.821 27.0672 219.141 27.0672H217.83V28.4694ZM219.232 30.5455C219.596 30.5455 219.869 30.4878 220.051 30.3725C220.234 30.2572 220.325 30.0781 220.325 29.8353C220.325 29.5864 220.239 29.4013 220.07 29.2798C219.906 29.1584 219.645 29.0977 219.287 29.0977H217.83V30.5455H219.232ZM224.634 31.274C224.154 31.274 223.724 31.1678 223.341 30.9553C222.959 30.7428 222.658 30.4514 222.44 30.0811C222.227 29.7047 222.121 29.2798 222.121 28.8063C222.121 28.3328 222.227 27.9109 222.44 27.5406C222.658 27.1643 222.959 26.8729 223.341 26.6665C223.724 26.454 224.154 26.3478 224.634 26.3478C225.114 26.3478 225.542 26.454 225.918 26.6665C226.301 26.8729 226.598 27.1643 226.81 27.5406C227.029 27.9109 227.138 28.3328 227.138 28.8063C227.138 29.2798 227.029 29.7047 226.81 30.0811C226.598 30.4514 226.301 30.7428 225.918 30.9553C225.542 31.1678 225.114 31.274 224.634 31.274ZM224.634 30.5091C224.944 30.5091 225.22 30.4393 225.463 30.2997C225.711 30.154 225.906 29.9537 226.046 29.6987C226.185 29.4377 226.255 29.1402 226.255 28.8063C226.255 28.4725 226.185 28.178 226.046 27.9231C225.906 27.6621 225.711 27.4618 225.463 27.3221C225.22 27.1825 224.944 27.1127 224.634 27.1127C224.325 27.1127 224.045 27.1825 223.796 27.3221C223.553 27.4618 223.359 27.6621 223.214 27.9231C223.074 28.178 223.004 28.4725 223.004 28.8063C223.004 29.1402 223.074 29.4377 223.214 29.6987C223.359 29.9537 223.553 30.154 223.796 30.2997C224.045 30.4393 224.325 30.5091 224.634 30.5091ZM233.273 30.4545V32.3393H232.453V31.2193H228.42V32.3393H227.591V30.4545H227.846C228.155 30.4363 228.368 30.2177 228.483 29.7989C228.598 29.38 228.677 28.7881 228.72 28.0232L228.793 26.3933H232.535V30.4545H233.273ZM229.521 28.087C229.497 28.694 229.445 29.1979 229.367 29.5985C229.294 29.9931 229.157 30.2784 228.957 30.4545H231.661V27.1582H229.567L229.521 28.087ZM236.515 31.274C236.023 31.274 235.583 31.1678 235.194 30.9553C234.812 30.7428 234.511 30.4514 234.293 30.0811C234.074 29.7047 233.965 29.2798 233.965 28.8063C233.965 28.3328 234.074 27.9109 234.293 27.5406C234.511 27.1643 234.812 26.8729 235.194 26.6665C235.583 26.454 236.023 26.3478 236.515 26.3478C236.952 26.3478 237.341 26.4358 237.68 26.6119C238.026 26.7879 238.293 27.0429 238.481 27.3767L237.817 27.8047C237.665 27.574 237.477 27.401 237.252 27.2857C237.028 27.1704 236.779 27.1127 236.505 27.1127C236.19 27.1127 235.904 27.1825 235.649 27.3221C235.401 27.4618 235.203 27.6621 235.058 27.9231C234.918 28.178 234.848 28.4725 234.848 28.8063C234.848 29.1463 234.918 29.4468 235.058 29.7078C235.203 29.9628 235.401 30.16 235.649 30.2997C235.904 30.4393 236.19 30.5091 236.505 30.5091C236.779 30.5091 237.028 30.4514 237.252 30.3361C237.477 30.2208 237.665 30.0478 237.817 29.8171L238.481 30.2359C238.293 30.5698 238.026 30.8278 237.68 31.0099C237.341 31.186 236.952 31.274 236.515 31.274ZM243.148 27.1582H241.382V31.2193H240.507V27.1582H238.741V26.3933H243.148V27.1582ZM247.329 28.7153C247.954 28.8731 248.267 29.2647 248.267 29.8899C248.267 30.3148 248.106 30.6426 247.784 30.8733C247.469 31.104 246.995 31.2193 246.364 31.2193H244.042V26.3933H246.282C246.852 26.3933 247.298 26.5026 247.62 26.7211C247.942 26.9336 248.103 27.2371 248.103 27.6317C248.103 27.8867 248.033 28.1083 247.893 28.2964C247.76 28.4785 247.571 28.6182 247.329 28.7153ZM244.898 28.4694H246.209C246.542 28.4694 246.795 28.4087 246.965 28.2873C247.141 28.1659 247.229 27.9899 247.229 27.7592C247.229 27.2979 246.889 27.0672 246.209 27.0672H244.898V28.4694ZM246.3 30.5455C246.664 30.5455 246.937 30.4878 247.119 30.3725C247.302 30.2572 247.393 30.0781 247.393 29.8353C247.393 29.5864 247.307 29.4013 247.138 29.2798C246.974 29.1584 246.713 29.0977 246.355 29.0977H244.898V30.5455H246.3ZM251.702 31.274C251.222 31.274 250.792 31.1678 250.409 30.9553C250.027 30.7428 249.726 30.4514 249.508 30.0811C249.295 29.7047 249.189 29.2798 249.189 28.8063C249.189 28.3328 249.295 27.9109 249.508 27.5406C249.726 27.1643 250.027 26.8729 250.409 26.6665C250.792 26.454 251.222 26.3478 251.702 26.3478C252.182 26.3478 252.609 26.454 252.986 26.6665C253.369 26.8729 253.666 27.1643 253.878 27.5406C254.097 27.9109 254.206 28.3328 254.206 28.8063C254.206 29.2798 254.097 29.7047 253.878 30.0811C253.666 30.4514 253.369 30.7428 252.986 30.9553C252.609 31.1678 252.182 31.274 251.702 31.274ZM251.702 30.5091C252.012 30.5091 252.288 30.4393 252.531 30.2997C252.779 30.154 252.974 29.9537 253.114 29.6987C253.253 29.4377 253.323 29.1402 253.323 28.8063C253.323 28.4725 253.253 28.178 253.114 27.9231C252.974 27.6621 252.779 27.4618 252.531 27.3221C252.288 27.1825 252.012 27.1127 251.702 27.1127C251.393 27.1127 251.113 27.1825 250.864 27.3221C250.621 27.4618 250.427 27.6621 250.282 27.9231C250.142 28.178 250.072 28.4725 250.072 28.8063C250.072 29.1402 250.142 29.4377 250.282 29.6987C250.427 29.9537 250.621 30.154 250.864 30.2997C251.113 30.4393 251.393 30.5091 251.702 30.5091ZM257.914 26.3933H258.788V29.9081L261.747 26.3933H262.539V31.2193H261.665V27.7045L258.715 31.2193H257.914V26.3933ZM268.749 31.274C268.269 31.274 267.838 31.1678 267.456 30.9553C267.073 30.7428 266.773 30.4514 266.554 30.0811C266.342 29.7047 266.236 29.2798 266.236 28.8063C266.236 28.3328 266.342 27.9109 266.554 27.5406C266.773 27.1643 267.073 26.8729 267.456 26.6665C267.838 26.454 268.269 26.3478 268.749 26.3478C269.228 26.3478 269.656 26.454 270.033 26.6665C270.415 26.8729 270.712 27.1643 270.925 27.5406C271.143 27.9109 271.253 28.3328 271.253 28.8063C271.253 29.2798 271.143 29.7047 270.925 30.0811C270.712 30.4514 270.415 30.7428 270.033 30.9553C269.656 31.1678 269.228 31.274 268.749 31.274ZM268.749 30.5091C269.058 30.5091 269.334 30.4393 269.577 30.2997C269.826 30.154 270.02 29.9537 270.16 29.6987C270.299 29.4377 270.369 29.1402 270.369 28.8063C270.369 28.4725 270.299 28.178 270.16 27.9231C270.02 27.6621 269.826 27.4618 269.577 27.3221C269.334 27.1825 269.058 27.1127 268.749 27.1127C268.439 27.1127 268.159 27.1825 267.911 27.3221C267.668 27.4618 267.474 27.6621 267.328 27.9231C267.188 28.178 267.119 28.4725 267.119 28.8063C267.119 29.1402 267.188 29.4377 267.328 29.6987C267.474 29.9537 267.668 30.154 267.911 30.2997C268.159 30.4393 268.439 30.5091 268.749 30.5091ZM276.985 26.3933V31.2193H276.111V27.1582H273.389V31.2193H272.515V26.3933H276.985ZM282.274 27.1582H280.507V31.2193H279.633V27.1582H277.867V26.3933H282.274V27.1582ZM285.021 31.274C284.542 31.274 284.111 31.1678 283.728 30.9553C283.346 30.7428 283.045 30.4514 282.827 30.0811C282.615 29.7047 282.508 29.2798 282.508 28.8063C282.508 28.3328 282.615 27.9109 282.827 27.5406C283.045 27.1643 283.346 26.8729 283.728 26.6665C284.111 26.454 284.542 26.3478 285.021 26.3478C285.501 26.3478 285.929 26.454 286.305 26.6665C286.688 26.8729 286.985 27.1643 287.197 27.5406C287.416 27.9109 287.525 28.3328 287.525 28.8063C287.525 29.2798 287.416 29.7047 287.197 30.0811C286.985 30.4514 286.688 30.7428 286.305 30.9553C285.929 31.1678 285.501 31.274 285.021 31.274ZM285.021 30.5091C285.331 30.5091 285.607 30.4393 285.85 30.2997C286.099 30.154 286.293 29.9537 286.433 29.6987C286.572 29.4377 286.642 29.1402 286.642 28.8063C286.642 28.4725 286.572 28.178 286.433 27.9231C286.293 27.6621 286.099 27.4618 285.85 27.3221C285.607 27.1825 285.331 27.1127 285.021 27.1127C284.712 27.1127 284.433 27.1825 284.183 27.3221C283.941 27.4618 283.746 27.6621 283.601 27.9231C283.462 28.178 283.391 28.4725 283.391 28.8063C283.391 29.1402 283.462 29.4377 283.601 29.6987C283.746 29.9537 283.941 30.154 284.183 30.2997C284.433 30.4393 284.712 30.5091 285.021 30.5091ZM292.075 28.7153C292.7 28.8731 293.013 29.2647 293.013 29.8899C293.013 30.3148 292.852 30.6426 292.53 30.8733C292.215 31.104 291.741 31.2193 291.11 31.2193H288.788V26.3933H291.028C291.598 26.3933 292.044 26.5026 292.366 26.7211C292.688 26.9336 292.849 27.2371 292.849 27.6317C292.849 27.8867 292.779 28.1083 292.639 28.2964C292.506 28.4785 292.317 28.6182 292.075 28.7153ZM289.644 28.4694H290.955C291.288 28.4694 291.541 28.4087 291.711 28.2873C291.887 28.1659 291.975 27.9899 291.975 27.7592C291.975 27.2979 291.635 27.0672 290.955 27.0672H289.644V28.4694ZM291.046 30.5455C291.41 30.5455 291.683 30.4878 291.865 30.3725C292.048 30.2572 292.139 30.0781 292.139 29.8353C292.139 29.5864 292.053 29.4013 291.884 29.2798C291.72 29.1584 291.459 29.0977 291.101 29.0977H289.644V30.5455H291.046ZM296.102 26.3478C296.769 26.3478 297.279 26.5117 297.632 26.8395C297.99 27.1673 298.169 27.656 298.169 28.3055V31.2193H297.341V30.5819C297.195 30.8065 296.985 30.9795 296.712 31.101C296.445 31.2163 296.126 31.274 295.756 31.274C295.216 31.274 294.782 31.1434 294.454 30.8824C294.132 30.6214 293.971 30.2784 293.971 29.8535C293.971 29.4286 294.126 29.0886 294.436 28.8337C294.745 28.5726 295.237 28.4421 295.911 28.4421H297.295V28.2691C297.295 27.8927 297.186 27.6044 296.967 27.4041C296.749 27.2037 296.427 27.1036 296.002 27.1036C295.716 27.1036 295.437 27.1522 295.164 27.2493C294.891 27.3403 294.66 27.4647 294.472 27.6226L294.108 26.967C294.356 26.7667 294.654 26.6149 295 26.5117C295.346 26.4024 295.713 26.3478 296.102 26.3478ZM295.902 30.6002C296.235 30.6002 296.524 30.5273 296.767 30.3816C297.009 30.2299 297.186 30.0174 297.295 29.7442V29.0704H295.947C295.207 29.0704 294.836 29.3193 294.836 29.8171C294.836 30.0599 294.93 30.2511 295.119 30.3907C295.307 30.5304 295.568 30.6002 295.902 30.6002ZM303.613 26.3933V31.2193H302.83V29.6896H301.428H301.328L300.271 31.2193H299.333L300.508 29.5712C300.144 29.4619 299.864 29.2829 299.67 29.034C299.476 28.779 299.379 28.4634 299.379 28.087C299.379 27.5346 299.567 27.1157 299.943 26.8304C300.319 26.539 300.838 26.3933 301.501 26.3933H303.613ZM300.271 28.1143C300.271 28.4361 300.371 28.6758 300.572 28.8337C300.778 28.9854 301.084 29.0613 301.491 29.0613H302.83V27.1582H301.528C300.69 27.1582 300.271 27.4769 300.271 28.1143ZM312.235 26.3933V31.2193H311.361V27.1582H308.638V31.2193H307.764V26.3933H312.235ZM316.485 26.3478C316.952 26.3478 317.371 26.451 317.741 26.6574C318.112 26.8638 318.4 27.1522 318.606 27.5224C318.819 27.8927 318.925 28.3207 318.925 28.8063C318.925 29.292 318.819 29.723 318.606 30.0993C318.4 30.4696 318.112 30.758 317.741 30.9644C317.371 31.1708 316.952 31.274 316.485 31.274C316.139 31.274 315.82 31.2072 315.528 31.0737C315.244 30.9401 315 30.7458 314.8 30.4909V32.9858H313.926V26.3933H314.764V27.1582C314.958 26.8911 315.204 26.6908 315.501 26.5572C315.799 26.4176 316.127 26.3478 316.485 26.3478ZM316.412 30.5091C316.721 30.5091 316.998 30.4393 317.24 30.2997C317.489 30.154 317.684 29.9537 317.823 29.6987C317.969 29.4377 318.042 29.1402 318.042 28.8063C318.042 28.4725 317.969 28.178 317.823 27.9231C317.684 27.6621 317.489 27.4618 317.24 27.3221C316.998 27.1825 316.721 27.1127 316.412 27.1127C316.109 27.1127 315.832 27.1855 315.583 27.3312C315.341 27.4709 315.146 27.6681 315 27.9231C314.861 28.178 314.791 28.4725 314.791 28.8063C314.791 29.1402 314.861 29.4377 315 29.6987C315.14 29.9537 315.335 30.154 315.583 30.2997C315.832 30.4393 316.109 30.5091 316.412 30.5091ZM322.262 31.274C321.783 31.274 321.352 31.1678 320.969 30.9553C320.587 30.7428 320.286 30.4514 320.068 30.0811C319.855 29.7047 319.749 29.2798 319.749 28.8063C319.749 28.3328 319.855 27.9109 320.068 27.5406C320.286 27.1643 320.587 26.8729 320.969 26.6665C321.352 26.454 321.783 26.3478 322.262 26.3478C322.742 26.3478 323.169 26.454 323.546 26.6665C323.928 26.8729 324.226 27.1643 324.438 27.5406C324.657 27.9109 324.766 28.3328 324.766 28.8063C324.766 29.2798 324.657 29.7047 324.438 30.0811C324.226 30.4514 323.928 30.7428 323.546 30.9553C323.169 31.1678 322.742 31.274 322.262 31.274ZM322.262 30.5091C322.572 30.5091 322.848 30.4393 323.091 30.2997C323.34 30.154 323.534 29.9537 323.674 29.6987C323.813 29.4377 323.883 29.1402 323.883 28.8063C323.883 28.4725 323.813 28.178 323.674 27.9231C323.534 27.6621 323.34 27.4618 323.091 27.3221C322.848 27.1825 322.572 27.1127 322.262 27.1127C321.953 27.1127 321.674 27.1825 321.424 27.3221C321.182 27.4618 320.987 27.6621 320.842 27.9231C320.702 28.178 320.632 28.4725 320.632 28.8063C320.632 29.1402 320.702 29.4377 320.842 29.6987C320.987 29.9537 321.182 30.154 321.424 30.2997C321.674 30.4393 321.953 30.5091 322.262 30.5091ZM330.901 30.4545V32.3393H330.081V31.2193H326.048V32.3393H325.219V30.4545H325.474C325.783 30.4363 325.996 30.2177 326.111 29.7989C326.226 29.38 326.306 28.7881 326.348 28.0232L326.421 26.3933H330.163V30.4545H330.901ZM327.149 28.087C327.125 28.694 327.073 29.1979 326.995 29.5985C326.922 29.9931 326.785 30.2784 326.585 30.4545H329.289V27.1582H327.195L327.149 28.087ZM333.761 26.3478C334.429 26.3478 334.939 26.5117 335.29 26.8395C335.649 27.1673 335.828 27.656 335.828 28.3055V31.2193H334.999V30.5819C334.853 30.8065 334.644 30.9795 334.371 31.101C334.103 31.2163 333.785 31.274 333.415 31.274C332.874 31.274 332.44 31.1434 332.113 30.8824C331.791 30.6214 331.63 30.2784 331.63 29.8535C331.63 29.4286 331.785 29.0886 332.094 28.8337C332.404 28.5726 332.896 28.4421 333.569 28.4421H334.954V28.2691C334.954 27.8927 334.844 27.6044 334.626 27.4041C334.407 27.2037 334.085 27.1036 333.661 27.1036C333.375 27.1036 333.096 27.1522 332.823 27.2493C332.55 27.3403 332.319 27.4647 332.131 27.6226L331.767 26.967C332.016 26.7667 332.313 26.6149 332.659 26.5117C333.005 26.4024 333.372 26.3478 333.761 26.3478ZM333.56 30.6002C333.894 30.6002 334.183 30.5273 334.425 30.3816C334.668 30.2299 334.844 30.0174 334.954 29.7442V29.0704H333.606C332.865 29.0704 332.495 29.3193 332.495 29.8171C332.495 30.0599 332.589 30.2511 332.777 30.3907C332.965 30.5304 333.227 30.6002 333.56 30.6002ZM341.791 29.1797H340.853V31.2193H339.979V29.1797H339.041L337.711 31.2193H336.673L338.33 28.7244L336.801 26.3933H337.729L339.032 28.433H339.979V26.3933H340.853V28.433H341.8L343.102 26.3933H344.04L342.51 28.7335L344.167 31.2193H343.129L341.791 29.1797ZM346.761 26.3478C347.429 26.3478 347.939 26.5117 348.291 26.8395C348.649 27.1673 348.828 27.656 348.828 28.3055V31.2193H347.999V30.5819C347.854 30.8065 347.644 30.9795 347.371 31.101C347.104 31.2163 346.786 31.274 346.415 31.274C345.875 31.274 345.441 31.1434 345.113 30.8824C344.792 30.6214 344.63 30.2784 344.63 29.8535C344.63 29.4286 344.785 29.0886 345.095 28.8337C345.404 28.5726 345.896 28.4421 346.57 28.4421H347.954V28.2691C347.954 27.8927 347.845 27.6044 347.626 27.4041C347.408 27.2037 347.086 27.1036 346.661 27.1036C346.376 27.1036 346.096 27.1522 345.823 27.2493C345.55 27.3403 345.32 27.4647 345.131 27.6226L344.767 26.967C345.016 26.7667 345.313 26.6149 345.659 26.5117C346.005 26.4024 346.373 26.3478 346.761 26.3478ZM346.561 30.6002C346.895 30.6002 347.183 30.5273 347.426 30.3816C347.669 30.2299 347.845 30.0174 347.954 29.7442V29.0704H346.606C345.866 29.0704 345.495 29.3193 345.495 29.8171C345.495 30.0599 345.59 30.2511 345.778 30.3907C345.966 30.5304 346.227 30.6002 346.561 30.6002ZM189.617 40.3797C189.125 40.3797 188.685 40.2735 188.297 40.061C187.914 39.8485 187.614 39.5571 187.395 39.1868C187.177 38.8104 187.067 38.3855 187.067 37.912C187.067 37.4385 187.177 37.0166 187.395 36.6463C187.614 36.2699 187.914 35.9786 188.297 35.7722C188.685 35.5597 189.125 35.4535 189.617 35.4535C190.054 35.4535 190.442 35.5415 190.783 35.7176C191.129 35.8936 191.396 36.1486 191.584 36.4824L190.919 36.9104C190.768 36.6797 190.579 36.5067 190.355 36.3914C190.13 36.2761 189.881 36.2184 189.608 36.2184C189.292 36.2184 189.007 36.2882 188.752 36.4278C188.503 36.5674 188.306 36.7678 188.16 37.0288C188.02 37.2837 187.951 37.5782 187.951 37.912C187.951 38.252 188.02 38.5525 188.16 38.8135C188.306 39.0684 188.503 39.2657 188.752 39.4054C189.007 39.545 189.292 39.6148 189.608 39.6148C189.881 39.6148 190.13 39.5571 190.355 39.4418C190.579 39.3265 190.768 39.1535 190.919 38.9228L191.584 39.3416C191.396 39.6755 191.129 39.9335 190.783 40.1156C190.442 40.2917 190.054 40.3797 189.617 40.3797ZM196.25 36.2639H194.483V40.325H193.609V36.2639H191.843V35.499H196.25V36.2639ZM197.144 35.499H198.018V39.0138L200.978 35.499H201.77V40.325H200.896V36.8102L197.945 40.325H197.144V35.499ZM207.609 35.499V40.325H206.735V36.2639H204.659L204.604 37.3384C204.574 37.9879 204.516 38.5312 204.431 38.9683C204.347 39.3993 204.207 39.7453 204.012 40.0063C203.819 40.2673 203.548 40.3979 203.202 40.3979C203.045 40.3979 202.865 40.3706 202.665 40.3159L202.719 39.5784C202.799 39.5966 202.872 39.6057 202.938 39.6057C203.181 39.6057 203.363 39.4995 203.484 39.287C203.606 39.0745 203.685 38.8226 203.721 38.5312C203.757 38.2398 203.791 37.824 203.821 37.2837L203.903 35.499H207.609ZM211.53 37.138C212.144 37.1441 212.611 37.2837 212.933 37.5569C213.255 37.8301 213.415 38.2156 213.415 38.7133C213.415 39.2354 213.239 39.639 212.887 39.9244C212.541 40.2036 212.044 40.3402 211.394 40.3341L209.3 40.325V35.499H210.174V37.1289L211.53 37.138ZM211.321 39.6694C211.716 39.6755 212.013 39.5966 212.213 39.4327C212.42 39.2688 212.523 39.026 212.523 38.7042C212.523 38.3886 212.423 38.1579 212.222 38.0122C212.028 37.8665 211.728 37.7906 211.321 37.7845L210.174 37.7663V39.6603L211.321 39.6694ZM214.537 35.499H215.411V37.5478H218.161V35.499H219.036V40.325H218.161V38.3036H215.411V40.325H214.537V35.499ZM222.802 40.3797C222.323 40.3797 221.891 40.2735 221.509 40.061C221.127 39.8485 220.826 39.5571 220.608 39.1868C220.395 38.8104 220.289 38.3855 220.289 37.912C220.289 37.4385 220.395 37.0166 220.608 36.6463C220.826 36.2699 221.127 35.9786 221.509 35.7722C221.891 35.5597 222.323 35.4535 222.802 35.4535C223.281 35.4535 223.709 35.5597 224.086 35.7722C224.468 35.9786 224.766 36.2699 224.978 36.6463C225.197 37.0166 225.306 37.4385 225.306 37.912C225.306 38.3855 225.197 38.8104 224.978 39.1868C224.766 39.5571 224.468 39.8485 224.086 40.061C223.709 40.2735 223.281 40.3797 222.802 40.3797ZM222.802 39.6148C223.112 39.6148 223.388 39.545 223.631 39.4054C223.88 39.2597 224.074 39.0593 224.213 38.8044C224.353 38.5434 224.423 38.2459 224.423 37.912C224.423 37.5782 224.353 37.2837 224.213 37.0288C224.074 36.7678 223.88 36.5674 223.631 36.4278C223.388 36.2882 223.112 36.2184 222.802 36.2184C222.492 36.2184 222.213 36.2882 221.964 36.4278C221.722 36.5674 221.527 36.7678 221.382 37.0288C221.242 37.2837 221.172 37.5782 221.172 37.912C221.172 38.2459 221.242 38.5434 221.382 38.8044C221.527 39.0593 221.722 39.2597 221.964 39.4054C222.213 39.545 222.492 39.6148 222.802 39.6148ZM226.569 35.499H227.443V39.0138L230.402 35.499H231.194V40.325H230.32V36.8102L227.37 40.325H226.569V35.499ZM228.827 34.8707C228.377 34.8707 228.029 34.7645 227.78 34.552C227.53 34.3335 227.403 34.0208 227.397 33.6141H227.989C227.995 33.8387 228.071 34.0208 228.217 34.1605C228.368 34.294 228.569 34.3608 228.818 34.3608C229.067 34.3608 229.267 34.294 229.419 34.1605C229.57 34.0208 229.649 33.8387 229.655 33.6141H230.265C230.26 34.0208 230.129 34.3335 229.874 34.552C229.619 34.7645 229.27 34.8707 228.827 34.8707ZM239.725 38.2854H238.787V40.325H237.913V38.2854H236.975L235.646 40.325H234.608L236.265 37.8301L234.735 35.499H235.664L236.966 37.5387H237.913V35.499H238.787V37.5387H239.734L241.036 35.499H241.974L240.444 37.8392L242.102 40.325H241.063L239.725 38.2854ZM247.265 37.9393C247.265 38.0061 247.259 38.0941 247.247 38.2034H243.331C243.386 38.6283 243.571 38.9713 243.887 39.2323C244.209 39.4873 244.606 39.6148 245.08 39.6148C245.657 39.6148 246.121 39.4205 246.473 39.032L246.956 39.5966C246.737 39.8515 246.464 40.0458 246.136 40.1793C245.814 40.3129 245.453 40.3797 245.052 40.3797C244.542 40.3797 244.09 40.2764 243.696 40.0701C243.301 39.8576 242.995 39.5632 242.776 39.1868C242.563 38.8104 242.457 38.3855 242.457 37.912C242.457 37.4446 242.561 37.0227 242.767 36.6463C242.98 36.2699 243.268 35.9786 243.632 35.7722C244.002 35.5597 244.418 35.4535 244.879 35.4535C245.341 35.4535 245.75 35.5597 246.109 35.7722C246.473 35.9786 246.755 36.2699 246.956 36.6463C247.162 37.0227 247.265 37.4537 247.265 37.9393ZM244.879 36.191C244.461 36.191 244.109 36.3185 243.823 36.5735C243.544 36.8284 243.38 37.1623 243.331 37.5751H246.427C246.379 37.1684 246.212 36.8376 245.927 36.5826C245.648 36.3216 245.298 36.191 244.879 36.191ZM248.621 35.499H249.495V37.5478H252.245V35.499H253.119V40.325H252.245V38.3036H249.495V40.325H248.621V35.499ZM256.922 40.3797C256.431 40.3797 255.991 40.2735 255.602 40.061C255.22 39.8485 254.919 39.5571 254.701 39.1868C254.482 38.8104 254.373 38.3855 254.373 37.912C254.373 37.4385 254.482 37.0166 254.701 36.6463C254.919 36.2699 255.22 35.9786 255.602 35.7722C255.991 35.5597 256.431 35.4535 256.922 35.4535C257.359 35.4535 257.748 35.5415 258.088 35.7176C258.434 35.8936 258.701 36.1486 258.889 36.4824L258.224 36.9104C258.073 36.6797 257.885 36.5067 257.66 36.3914C257.436 36.2761 257.186 36.2184 256.913 36.2184C256.598 36.2184 256.312 36.2882 256.057 36.4278C255.809 36.5674 255.611 36.7678 255.465 37.0288C255.326 37.2837 255.256 37.5782 255.256 37.912C255.256 38.252 255.326 38.5525 255.465 38.8135C255.611 39.0684 255.809 39.2657 256.057 39.4054C256.312 39.545 256.598 39.6148 256.913 39.6148C257.186 39.6148 257.436 39.5571 257.66 39.4418C257.885 39.3265 258.073 39.1535 258.224 38.9228L258.889 39.3416C258.701 39.6755 258.434 39.9335 258.088 40.1156C257.748 40.2917 257.359 40.3797 256.922 40.3797ZM261.897 38.2854H260.895V40.325H260.021V35.499H260.895V37.5387H261.915L263.481 35.499H264.419L262.589 37.821L264.546 40.325H263.517L261.897 38.2854ZM267.37 40.3797C266.89 40.3797 266.46 40.2735 266.077 40.061C265.695 39.8485 265.395 39.5571 265.176 39.1868C264.963 38.8104 264.857 38.3855 264.857 37.912C264.857 37.4385 264.963 37.0166 265.176 36.6463C265.395 36.2699 265.695 35.9786 266.077 35.7722C266.46 35.5597 266.89 35.4535 267.37 35.4535C267.85 35.4535 268.278 35.5597 268.654 35.7722C269.037 35.9786 269.334 36.2699 269.547 36.6463C269.765 37.0166 269.875 37.4385 269.875 37.912C269.875 38.3855 269.765 38.8104 269.547 39.1868C269.334 39.5571 269.037 39.8485 268.654 40.061C268.278 40.2735 267.85 40.3797 267.37 40.3797ZM267.37 39.6148C267.68 39.6148 267.956 39.545 268.199 39.4054C268.448 39.2597 268.642 39.0593 268.782 38.8044C268.921 38.5434 268.991 38.2459 268.991 37.912C268.991 37.5782 268.921 37.2837 268.782 37.0288C268.642 36.7678 268.448 36.5674 268.199 36.4278C267.956 36.2882 267.68 36.2184 267.37 36.2184C267.061 36.2184 266.781 36.2882 266.533 36.4278C266.289 36.5674 266.096 36.7678 265.95 37.0288C265.81 37.2837 265.741 37.5782 265.741 37.912C265.741 38.2459 265.81 38.5434 265.95 38.8044C266.096 39.0593 266.289 39.2597 266.533 39.4054C266.781 39.545 267.061 39.6148 267.37 39.6148ZM271.136 35.499H272.01V39.0138L274.97 35.499H275.762V40.325H274.888V36.8102L271.938 40.325H271.136V35.499ZM273.395 34.8707C272.946 34.8707 272.596 34.7645 272.347 34.552C272.099 34.3335 271.971 34.0208 271.965 33.6141H272.557C272.563 33.8387 272.639 34.0208 272.784 34.1605C272.937 34.294 273.137 34.3608 273.385 34.3608C273.635 34.3608 273.835 34.294 273.986 34.1605C274.139 34.0208 274.217 33.8387 274.223 33.6141H274.833C274.827 34.0208 274.697 34.3335 274.442 34.552C274.187 34.7645 273.838 34.8707 273.395 34.8707ZM281.971 40.3797C281.491 40.3797 281.061 40.2735 280.678 40.061C280.296 39.8485 279.995 39.5571 279.777 39.1868C279.564 38.8104 279.458 38.3855 279.458 37.912C279.458 37.4385 279.564 37.0166 279.777 36.6463C279.995 36.2699 280.296 35.9786 280.678 35.7722C281.061 35.5597 281.491 35.4535 281.971 35.4535C282.451 35.4535 282.879 35.5597 283.255 35.7722C283.638 35.9786 283.935 36.2699 284.148 36.6463C284.366 37.0166 284.476 37.4385 284.476 37.912C284.476 38.3855 284.366 38.8104 284.148 39.1868C283.935 39.5571 283.638 39.8485 283.255 40.061C282.879 40.2735 282.451 40.3797 281.971 40.3797ZM281.971 39.6148C282.281 39.6148 282.557 39.545 282.8 39.4054C283.049 39.2597 283.243 39.0593 283.383 38.8044C283.522 38.5434 283.592 38.2459 283.592 37.912C283.592 37.5782 283.522 37.2837 283.383 37.0288C283.243 36.7678 283.049 36.5674 282.8 36.4278C282.557 36.2882 282.281 36.2184 281.971 36.2184C281.662 36.2184 281.382 36.2882 281.134 36.4278C280.89 36.5674 280.697 36.7678 280.551 37.0288C280.411 37.2837 280.342 37.5782 280.342 37.912C280.342 38.2459 280.411 38.5434 280.551 38.8044C280.697 39.0593 280.89 39.2597 281.134 39.4054C281.382 39.545 281.662 39.6148 281.971 39.6148ZM290.61 39.5602V41.445H289.791V40.325H285.757V41.445H284.928V39.5602H285.183C285.493 39.5419 285.705 39.3234 285.821 38.9045C285.936 38.4857 286.015 37.8938 286.057 37.1289L286.13 35.499H289.873V39.5602H290.61ZM286.859 37.1927C286.835 37.7997 286.782 38.3036 286.704 38.7042C286.631 39.0988 286.494 39.3841 286.294 39.5602H288.998V36.2639H286.904L286.859 37.1927ZM296.111 37.9393C296.111 38.0061 296.104 38.0941 296.092 38.2034H292.177C292.232 38.6283 292.416 38.9713 292.732 39.2323C293.054 39.4873 293.452 39.6148 293.925 39.6148C294.502 39.6148 294.966 39.4205 295.318 39.032L295.801 39.5966C295.582 39.8515 295.309 40.0458 294.982 40.1793C294.66 40.3129 294.299 40.3797 293.898 40.3797C293.388 40.3797 292.935 40.2764 292.541 40.0701C292.146 39.8576 291.84 39.5632 291.622 39.1868C291.409 38.8104 291.303 38.3855 291.303 37.912C291.303 37.4446 291.406 37.0227 291.612 36.6463C291.824 36.2699 292.113 35.9786 292.477 35.7722C292.848 35.5597 293.263 35.4535 293.725 35.4535C294.186 35.4535 294.596 35.5597 294.954 35.7722C295.318 35.9786 295.601 36.2699 295.801 36.6463C296.007 37.0227 296.111 37.4537 296.111 37.9393ZM293.725 36.191C293.306 36.191 292.954 36.3185 292.669 36.5735C292.389 36.8284 292.225 37.1623 292.177 37.5751H295.273C295.224 37.1684 295.057 36.8376 294.772 36.5826C294.492 36.3216 294.144 36.191 293.725 36.191ZM301.722 38.2854H300.784V40.325H299.91V38.2854H298.972L297.643 40.325H296.605L298.262 37.8301L296.732 35.499H297.661L298.963 37.5387H299.91V35.499H300.784V37.5387H301.731L303.034 35.499H303.971L302.442 37.8392L304.099 40.325H303.061L301.722 38.2854ZM309.969 39.5602V41.445H309.149V40.325H305.115V41.445H304.287V39.5602H304.542C304.851 39.5419 305.063 39.3234 305.179 38.9045C305.294 38.4857 305.373 37.8938 305.416 37.1289L305.489 35.499H309.231V39.5602H309.969ZM306.217 37.1927C306.193 37.7997 306.141 38.3036 306.062 38.7042C305.99 39.0988 305.853 39.3841 305.653 39.5602H308.357V36.2639H306.263L306.217 37.1927ZM313.283 37.138C313.891 37.1441 314.355 37.2837 314.676 37.5569C314.998 37.8301 315.159 38.2156 315.159 38.7133C315.159 39.2354 314.983 39.639 314.631 39.9244C314.285 40.2036 313.787 40.3402 313.138 40.3341L311.107 40.325V35.499H311.981V37.1289L313.283 37.138ZM315.878 35.499H316.753V40.325H315.878V35.499ZM313.074 39.6694C313.469 39.6755 313.766 39.5966 313.966 39.4327C314.173 39.2688 314.276 39.026 314.276 38.7042C314.276 38.3886 314.176 38.1579 313.975 38.0122C313.775 37.8665 313.475 37.7906 313.074 37.7845L311.981 37.7663V39.6603L313.074 39.6694Z" fill="#212121"/>
</svg>
