<svg width="51" height="40" viewBox="0 0 51 40" fill="none" xmlns="http://www.w3.org/2000/svg">
<path d="M0 25.5333C0 24.5556 0.233335 23.1889 0.700001 21.4333C1.16667 19.6556 1.82222 17.5889 2.66667 15.2333C4.04443 11.4778 5.33333 8.35557 6.53333 5.86667C7.75556 3.35557 8.94443 1.4 10.1 0C10.3667 0.0444438 10.6889 0.155555 11.0667 0.333333C11.4667 0.511111 11.8556 0.711111 12.2333 0.933335C12.6111 1.13333 12.9445 1.34444 13.2333 1.56666C13.5445 1.78889 13.7445 1.96667 13.8333 2.1C12.1 4.14443 10.5778 6.34443 9.26666 8.7C7.95556 11.0556 6.75556 13.7556 5.66666 16.8C4.73333 19.4222 4.02223 21.7889 3.53333 23.9C3.04444 25.9889 2.8 27.7333 2.8 29.1333C2.8 29.5111 2.8 29.7444 2.8 29.8333C2.8 29.9222 2.81111 30.0111 2.83333 30.1C2.52222 30.0556 2.25555 29.9778 2.03333 29.8667C1.81111 29.7556 1.66667 29.6222 1.6 29.4667C1.55555 29.3556 1.43333 29.1889 1.23333 28.9667C1.03333 28.7667 0.855555 28.6111 0.700001 28.5C0.500001 28.3667 0.333335 28.0222 0.200001 27.4667C0.066668 26.8889 0 26.2444 0 25.5333ZM11.7141 28.8333C10.4474 28.7 9.43629 28.1444 8.68073 27.1667C7.92516 26.1889 7.54739 24.9444 7.54739 23.4333C7.54739 22.5444 7.68073 21.6222 7.94739 20.6667C8.21406 19.7111 8.59183 18.7889 9.08073 17.9C9.56963 16.9889 10.1474 16.1333 10.8141 15.3333C11.4807 14.5333 12.203 13.8444 12.9807 13.2667C14.203 12.3556 15.3474 11.9 16.4141 11.9C17.1252 12.2778 17.8252 13.0667 18.5141 14.2667C18.6252 14.2667 18.7252 14.2667 18.8141 14.2667C18.903 14.2444 19.003 14.2333 19.1141 14.2333C20.2918 14.2333 20.8807 15.2778 20.8807 17.3667C20.8807 18.7667 20.6474 20.1 20.1807 21.3667C19.7363 22.6111 19.103 23.7444 18.2807 24.7667C17.4807 25.7889 16.5141 26.6556 15.3807 27.3667C14.2696 28.0556 13.0474 28.5444 11.7141 28.8333ZM13.4141 18.3333C13.0363 18.8444 12.6807 19.4 12.3474 20C12.0141 20.6 11.7252 21.2111 11.4807 21.8333C11.2363 22.4333 11.0474 23.0222 10.9141 23.6C10.7807 24.1556 10.7141 24.6556 10.7141 25.1C10.7141 25.6333 10.803 26.1444 10.9807 26.6333C11.1585 27.1222 11.3585 27.4 11.5807 27.4667C12.5807 27.2444 13.4918 26.8333 14.3141 26.2333C15.1585 25.6111 15.8807 24.8444 16.4807 23.9333C17.103 23.0222 17.5807 21.9889 17.9141 20.8333C18.2696 19.6778 18.4474 18.4444 18.4474 17.1333C18.4474 16.5556 18.4141 16.1 18.3474 15.7667C18.2807 15.4333 18.1696 15.1444 18.0141 14.9C17.0363 15.1889 16.1585 15.6556 15.3807 16.3C14.6252 16.9444 13.9696 17.6222 13.4141 18.3333ZM15.7609 37.6C15.7609 37.4667 15.8054 37.3443 15.8943 37.2333C15.9832 37.1223 16.0832 37.011 16.1943 36.9C16.4609 37.1443 16.6943 37.3333 16.8943 37.4667C17.0721 37.6 17.2498 37.711 17.4276 37.8C17.5832 37.889 17.7498 37.9443 17.9276 37.9667C18.1054 37.989 18.3165 38 18.5609 38C19.7165 38 20.8165 37.689 21.8609 37.0667C22.9054 36.4667 23.8832 35.589 24.7943 34.4333C25.7276 33.2778 26.5721 31.8667 27.3276 30.2C28.0832 28.5333 28.7498 26.6444 29.3276 24.5333C29.0609 24.8 28.7276 25.1 28.3276 25.4333C27.9498 25.7444 27.5498 26.0444 27.1276 26.3333C26.7054 26.6222 26.2832 26.8889 25.8609 27.1333C25.4609 27.3778 25.1165 27.5556 24.8276 27.6667C24.4498 27.6 24.0943 27.4444 23.7609 27.2C23.4498 26.9333 23.1721 26.6111 22.9276 26.2333C22.6832 25.8556 22.4943 25.4333 22.3609 24.9667C22.2276 24.4778 22.1609 23.9667 22.1609 23.4333C22.1609 22.5667 22.3165 21.6778 22.6276 20.7667C22.9609 19.8556 23.3943 18.9667 23.9276 18.1C24.4609 17.2111 25.0832 16.3778 25.7943 15.6C26.5276 14.8222 27.2943 14.1444 28.0943 13.5667C28.9165 12.9889 29.7387 12.5333 30.5609 12.2C31.4054 11.8444 32.2276 11.6667 33.0276 11.6667C33.8055 11.6667 34.3832 11.8333 34.7608 12.1667C35.1608 12.4778 35.4498 13.0222 35.6275 13.8C35.3832 13.6667 35.0722 13.6 34.6942 13.6C34.1608 13.6 33.5388 13.8111 32.8276 14.2333C32.1387 14.6556 31.4276 15.2111 30.6943 15.9C29.9832 16.5667 29.2721 17.3444 28.5609 18.2333C27.8498 19.1 27.2165 19.9889 26.6609 20.9C26.1276 21.8111 25.6832 22.7 25.3276 23.5667C24.9943 24.4333 24.8276 25.2111 24.8276 25.9C24.8276 26.0556 24.8387 26.1556 24.8609 26.2C24.8832 26.2222 24.9165 26.2333 24.9609 26.2333C25.1609 26.2333 25.4276 26.1222 25.7609 25.9C26.1165 25.6778 26.5054 25.4 26.9276 25.0667C27.3721 24.7111 27.8276 24.3111 28.2943 23.8667C28.7609 23.4 29.2054 22.9333 29.6276 22.4667C30.5832 21.4 31.4498 20.2111 32.2276 18.9C33.0276 17.5667 33.6608 16.2778 34.1275 15.0333C34.7275 15.0778 35.2608 15.1778 35.7275 15.3333C36.1942 15.4889 36.5165 15.6556 36.6942 15.8333C35.9388 17.5667 35.3275 19.0222 34.8608 20.2C34.4165 21.3778 34.0275 22.4222 33.6942 23.3333C33.0942 24.9333 32.5276 26.3889 31.9943 27.7C31.4832 29.0333 30.9498 30.2556 30.3943 31.3667C29.8609 32.5 29.2721 33.5443 28.6276 34.5C28.0054 35.4777 27.2943 36.411 26.4943 37.3C26.1165 37.7223 25.6832 38.089 25.1943 38.4C24.7276 38.7333 24.2387 39.011 23.7276 39.2333C23.2387 39.4557 22.7498 39.6223 22.2609 39.7333C21.7943 39.8443 21.3609 39.9 20.9609 39.9C20.4276 39.9 19.8832 39.8333 19.3276 39.7C18.7721 39.589 18.2609 39.4223 17.7943 39.2C17.3054 39 16.8832 38.7557 16.5276 38.4667C16.1721 38.2 15.9165 37.911 15.7609 37.6ZM41.4342 28.8333C40.1675 28.7 39.1565 28.1444 38.4008 27.1667C37.6452 26.1889 37.2675 24.9444 37.2675 23.4333C37.2675 22.5444 37.4008 21.6222 37.6675 20.6667C37.9342 19.7111 38.3118 18.7889 38.8008 17.9C39.2898 16.9889 39.8675 16.1333 40.5342 15.3333C41.2008 14.5333 41.9232 13.8444 42.7008 13.2667C43.9232 12.3556 45.0675 11.9 46.1342 11.9C46.8452 12.2778 47.5452 13.0667 48.2342 14.2667C48.3452 14.2667 48.4452 14.2667 48.5342 14.2667C48.6232 14.2444 48.7232 14.2333 48.8342 14.2333C50.0118 14.2333 50.6008 15.2778 50.6008 17.3667C50.6008 18.7667 50.3675 20.1 49.9008 21.3667C49.4565 22.6111 48.8232 23.7444 48.0008 24.7667C47.2008 25.7889 46.2342 26.6556 45.1008 27.3667C43.9898 28.0556 42.7675 28.5444 41.4342 28.8333ZM43.1342 18.3333C42.7565 18.8444 42.4008 19.4 42.0675 20C41.7342 20.6 41.4452 21.2111 41.2008 21.8333C40.9565 22.4333 40.7675 23.0222 40.6342 23.6C40.5008 24.1556 40.4342 24.6556 40.4342 25.1C40.4342 25.6333 40.5232 26.1444 40.7008 26.6333C40.8785 27.1222 41.0785 27.4 41.3008 27.4667C42.3008 27.2444 43.2118 26.8333 44.0342 26.2333C44.8785 25.6111 45.6008 24.8444 46.2008 23.9333C46.8232 23.0222 47.3008 21.9889 47.6342 20.8333C47.9898 19.6778 48.1675 18.4444 48.1675 17.1333C48.1675 16.5556 48.1342 16.1 48.0675 15.7667C48.0008 15.4333 47.8898 15.1444 47.7342 14.9C46.7565 15.1889 45.8785 15.6556 45.1008 16.3C44.3452 16.9444 43.6898 17.6222 43.1342 18.3333Z" fill="black"/>
</svg>
