<svg width="80" height="80" viewBox="0 0 80 80" fill="none" xmlns="http://www.w3.org/2000/svg">
<circle cx="40" cy="40" r="40" fill="url(#paint0_linear)"/>
<g clip-path="url(#clip0)">
<path d="M45.6009 50.072C49.6096 46.7185 52.7659 42.6816 54.9992 38.0741C55.8305 36.3198 56.8168 33.9738 56.9859 31.36C56.993 31.198 57 31.043 57 30.8809C57 29.1267 56.3941 27.7177 55.1471 26.5693C55.1401 26.5622 55.126 26.5482 55.1119 26.5411C54.6187 26.1325 54.1749 25.6675 53.7029 25.1814C53.3858 24.8503 53.0547 24.5121 52.7165 24.188C51.1525 22.6874 49.1658 22.6874 47.6511 24.2021L43.4169 28.4363C42.6701 29.1549 42.2756 30.0144 42.2756 30.9162C42.2756 31.8179 42.6701 32.6845 43.4099 33.4242L45.932 35.9464C45.7982 36.1789 45.6784 36.4184 45.5657 36.6439C45.4248 36.9257 45.2909 37.1864 45.143 37.4189C43.6846 39.7156 41.7824 41.801 39.3378 43.7947C38.0626 44.8022 36.9917 45.4785 35.8997 45.9506C35.3009 45.2883 34.6739 44.6683 34.0609 44.0695C33.8425 43.8581 33.6241 43.6397 33.4057 43.4213C32.6448 42.6605 31.7642 42.2518 30.8695 42.2518C29.9747 42.2518 29.0941 42.6534 28.3332 43.4213L26.2337 45.5208C25.9872 45.7674 25.7476 45.9999 25.501 46.2394C25.022 46.7044 24.5288 47.1905 24.085 47.6696C23.3734 48.3952 23 49.2477 23 50.1495C23 51.0442 23.3734 51.9037 24.092 52.6576L26.7269 55.2925C27.685 56.2506 28.8475 56.7931 30.1931 56.9058C31.8769 57.0397 33.6664 56.7297 35.8293 55.9265C39.1757 54.6936 42.2826 52.8337 45.6009 50.072ZM30.3411 55.1868C29.4041 55.1022 28.622 54.7429 27.9457 54.0666L25.3249 51.4458C24.9304 51.0372 24.7261 50.5863 24.7261 50.1495C24.7261 49.7197 24.9304 49.2829 25.339 48.8814C25.7758 48.4093 26.2337 47.9655 26.7199 47.4864C26.9664 47.2469 27.213 47.0003 27.4666 46.7537L29.5661 44.6542C30.0029 44.2174 30.4467 43.992 30.8835 43.992C31.3203 43.992 31.7642 44.2174 32.201 44.6542C32.4194 44.8726 32.6448 45.091 32.8632 45.3094C33.5255 45.9646 34.1525 46.5776 34.7513 47.2539C34.7654 47.268 34.7725 47.2751 34.7866 47.2891C35.3713 47.8739 35.9279 47.7823 36.3506 47.6414C36.3717 47.6344 36.3858 47.6273 36.407 47.6203C37.7103 47.0778 38.9503 46.324 40.4298 45.1474C43.0365 43.0339 45.0584 40.8076 46.6154 38.3559C46.8127 38.0529 46.9677 37.7288 47.1227 37.4259C47.2636 37.1441 47.3974 36.8834 47.5454 36.6509C47.5595 36.6228 47.5736 36.6016 47.5877 36.5734C47.7074 36.3409 47.7638 36.1155 47.7638 35.8901C47.7638 35.3264 47.4045 34.9601 47.2847 34.8403L44.6498 32.2054C44.2412 31.7968 44.0228 31.353 44.0228 30.9162C44.0228 30.3807 44.3539 29.9439 44.6498 29.6692L48.891 25.4209C49.7364 24.5755 50.6523 24.5826 51.547 25.4421C51.8641 25.738 52.167 26.0479 52.484 26.3791C52.9631 26.8722 53.4563 27.3865 54.0128 27.8515C54.8864 28.6617 55.2951 29.6269 55.2951 30.8739C55.2951 30.9937 55.288 31.1205 55.281 31.2402C55.133 33.5511 54.2312 35.6998 53.4633 37.3132C51.3427 41.6953 48.3344 45.5419 44.516 48.7334C41.3527 51.3613 38.4078 53.1296 35.2516 54.2991C33.3141 55.0247 31.7571 55.2995 30.3411 55.1868Z" fill="white"/>
</g>
<defs>
<linearGradient id="paint0_linear" x1="0" y1="0" x2="80" y2="80" gradientUnits="userSpaceOnUse">
<stop stop-color="#FF0000"/>
<stop offset="1" stop-color="#FF6565"/>
</linearGradient>
<clipPath id="clip0">
<rect x="23" y="57" width="34" height="34" transform="rotate(-90 23 57)" fill="white"/>
</clipPath>
</defs>
</svg>
