<svg width="25" height="25" viewBox="0 0 25 25" fill="none" xmlns="http://www.w3.org/2000/svg">
<path d="M9.42493 7.40228C9.32718 7.50796 9.26357 7.57614 9.21582 7.62728C9.30446 7.53182 9.42493 7.40228 9.42493 7.40228Z" fill="black"/>
<path d="M13.765 8.20574C14.09 8.60574 14.2513 9.07736 14.2513 9.62054C14.2513 10.0092 14.1399 10.383 13.9183 10.7444C13.7967 10.9489 13.6366 11.1467 13.4365 11.3353L12.7706 11.9933C12.132 12.6205 11.7195 13.1762 11.5308 13.6626C11.3422 14.1478 11.2479 14.7876 11.2479 15.5808H12.7297C12.7297 14.8819 12.8092 14.3535 12.9672 13.9955C13.1251 13.6375 13.4706 13.2012 14.0036 12.6841C14.7365 11.9739 15.2229 11.4353 15.4638 11.0694C15.7047 10.7034 15.8263 10.2262 15.8263 9.63753C15.8263 8.6671 15.4979 7.86934 14.8399 7.24434C14.182 6.61934 13.307 6.30798 12.2138 6.30798C11.0319 6.30798 10.1024 6.67273 9.42511 7.40231C8.74782 8.13189 8.40918 9.09549 8.40918 10.2944H9.891C9.91825 9.57274 10.0331 9.02049 10.2319 8.63753C10.5865 7.95002 11.2274 7.6057 12.1547 7.6057C12.9036 7.60574 13.4411 7.80574 13.765 8.20574Z" fill="black"/>
<path d="M25 12.5C25 5.59657 19.4034 0 12.5 0C5.59657 0 0 5.59657 0 12.5C0 19.4034 5.59657 25 12.5 25C19.4034 25 25 19.4034 25 12.5ZM1.13636 12.5C1.13636 6.22386 6.22386 1.13636 12.5 1.13636C18.7761 1.13636 23.8636 6.22386 23.8636 12.5C23.8636 18.7761 18.7761 23.8636 12.5 23.8636C6.22386 23.8636 1.13636 18.7761 1.13636 12.5Z" fill="black"/>
<path d="M12.8707 16.9614H11.2139V18.692H12.8707V16.9614Z" fill="black"/>
</svg>
