<svg width="25" height="25" viewBox="0 0 25 25" fill="none" xmlns="http://www.w3.org/2000/svg">
<path d="M18.5897 17.5512L18.4979 17.6568L18.5968 17.7557L24.6722 23.8311C24.9019 24.0608 24.9019 24.4425 24.6722 24.6722L24.6702 24.6742C24.5566 24.7922 24.4027 24.85 24.2517 24.85C24.1032 24.85 23.9473 24.7884 23.8311 24.6722L17.7557 18.5968L17.6568 18.4979L17.5512 18.5897C15.7038 20.1966 13.2939 21.1693 10.6596 21.1693C4.86666 21.1693 0.15 16.4526 0.15 10.6596C0.15 4.86661 4.86116 0.15 10.6596 0.15C16.4527 0.15 21.1693 4.86116 21.1693 10.6596C21.1693 13.2939 20.1966 15.7038 18.5897 17.5512ZM10.6541 1.34667C5.52143 1.34667 1.34113 5.52131 1.34113 10.6596C1.34113 15.7979 5.52131 19.9782 10.6541 19.9782C15.7926 19.9782 19.9671 15.7922 19.9671 10.6596C19.9671 5.52697 15.7924 1.34667 10.6541 1.34667Z" fill="black" stroke="white" stroke-width="0.3"/>
</svg>
